<svg xmlns="http://www.w3.org/2000/svg" class="graphdiagram" viewBox="-1202.08298564085 -314.153796760304 1899.0227758876176 925.7736032452136"><g class="layer relationships"><g class="related-pair"><g class="relationship" transform="translate(-513.1527311905576,400.16035439311594) rotate(0)"><path class="relationship" d="M 112.42656458970409,-18.922093633031903 L 113.4767328772861,-10.991321503676712 A 1597.0612437653945 1597.0612437653945 0 0 1 516.5679663236725,-13.052806659545151 L 515.1144715355888,-1.141158876764914 L 548.8168586737811,-13.147369818915204 L 518.9904576371455,-32.90555296417888 L 517.5369628490618,-20.99390518139864 A 1605.0612437653945 1605.0612437653945 0 0 0 112.42656458970409,-18.922093633031903" fill="rgb(0, 0, 0)" stroke="rgb(51, 51, 51)" stroke-width="0px"/><text class="type" text-anchor="middle" baseline-shift="30%" alignment-baseline="alphabetic" x="323.12461681837516" y="-28.811465153080462" font-size="50px" font-family="&quot;Gill Sans&quot;, &quot;Gill Sans MT&quot;, Calibri, sans-serif">LEADS</text></g><g class="relationship" transform="translate(-513.1527311905576,400.16035439311594) rotate(0)"><path class="relationship" d="M 112.42656458970409,18.922093633031903 L 113.4767328772861,10.991321503676712 A 1597.0612437653945 1597.0612437653945 0 0 0 516.5679663236725,13.052806659545151 L 515.1144715355888,1.141158876764914 L 548.8168586737811,13.147369818915204 L 518.9904576371455,32.90555296417888 L 517.5369628490618,20.99390518139864 A 1605.0612437653945 1605.0612437653945 0 0 1 112.42656458970409,18.922093633031903" fill="rgb(0, 0, 0)" stroke="rgb(51, 51, 51)" stroke-width="0px"/><text class="type" text-anchor="middle" baseline-shift="30%" alignment-baseline="alphabetic" x="323.12461681837516" y="28.811465153080462" font-size="50px" font-family="&quot;Gill Sans&quot;, &quot;Gill Sans MT&quot;, Calibri, sans-serif">IS_MEMBER</text></g></g><g class="related-pair"><g class="relationship" transform="translate(-513.1527311905576,400.16035439311594) rotate(-90)"><path class="relationship" d="M 113.93760596440549 4 L 465.43893922460893 4 L 465.43893922460893 16 L 497.43893922460893 0 L 465.43893922460893 -16 L 465.43893922460893 -4 L 113.93760596440549 -4 Z" fill="rgb(0, 0, 0)" stroke="rgb(51, 51, 51)" stroke-width="0px"/><text class="type" text-anchor="middle" baseline-shift="30%" alignment-baseline="alphabetic" x="289.6882725945072" y="0" font-size="50px" font-family="&quot;Gill Sans&quot;, &quot;Gill Sans MT&quot;, Calibri, sans-serif">IS_PARENT</text></g></g></g><g class="layer nodes"><circle class="node node-id-0" r="98.93760596440549" fill="rgb(255, 255, 255)" stroke="rgb(0, 0, 0)" stroke-width="8px" cx="-513.1527311905576" cy="400.16035439311594"/><g class="caption"><text class="caption node" text-anchor="middle" alignment-baseline="central" x="-513.1527311905576" y="400.16035439311594" fill="rgb(51, 51, 51)" font-size="50px" font-family="&quot;Gill Sans&quot;, &quot;Gill Sans MT&quot;, Calibri, sans-serif">:Person</text></g><circle class="node node-id-1" r="93.54420608895279" fill="rgb(255, 255, 255)" stroke="rgb(0, 0, 0)" stroke-width="8px" cx="143.40915679931658" cy="400.16035439311594"/><g class="caption"><text class="caption node" text-anchor="middle" alignment-baseline="central" x="143.40915679931658" y="400.16035439311594" fill="rgb(51, 51, 51)" font-size="50px" font-family="&quot;Gill Sans&quot;, &quot;Gill Sans MT&quot;, Calibri, sans-serif">:Group</text></g><circle class="node node-id-2" r="98.93760596440549" fill="rgb(255, 255, 255)" stroke="rgb(0, 0, 0)" stroke-width="8px" cx="-513.1527311905576" cy="-211.21619079589848"/><g class="caption"><text class="caption node" text-anchor="middle" alignment-baseline="central" x="-513.1527311905576" y="-211.21619079589848" fill="rgb(51, 51, 51)" font-size="50px" font-family="&quot;Gill Sans&quot;, &quot;Gill Sans MT&quot;, Calibri, sans-serif">:Person</text></g></g><g class="layer properties"><g class="speech-bubble node-speech-bubble" transform="translate(-583.1121832823513,470.11980648490965) "><path class="speech-bubble-outline" transform="scale(-1,1) " d="M 0 0 L 30 20 L 443.1591796875 20 A 10 10 0 0 1 453.1591796875 30 L 453.1591796875 130 A 10 10 0 0 1 443.1591796875 140 L 30 140 A 10 10 0 0 1 20 130 L 20 30 Z" fill="rgb(255, 255, 255)" stroke="rgb(0, 0, 0)" stroke-width="3px"/><text class="speech-bubble-content property-key" x="-303.4375" y="55" alignment-baseline="central" text-anchor="end" font-size="50px" font-family="&quot;Gill Sans&quot;, &quot;Gill Sans MT&quot;, Calibri, sans-serif" xml:space="preserve">name: </text><text class="speech-bubble-content property-key" x="-303.4375" y="105" alignment-baseline="central" text-anchor="end" font-size="50px" font-family="&quot;Gill Sans&quot;, &quot;Gill Sans MT&quot;, Calibri, sans-serif" xml:space="preserve">sex: </text><text class="speech-bubble-content property-value" x="-303.4375" y="55" alignment-baseline="central" font-size="50px" font-family="&quot;Gill Sans&quot;, &quot;Gill Sans MT&quot;, Calibri, sans-serif">String</text><text class="speech-bubble-content property-value" x="-303.4375" y="105" alignment-baseline="central" font-size="50px" font-family="&quot;Gill Sans&quot;, &quot;Gill Sans MT&quot;, Calibri, sans-serif">Female|Male</text></g><g class="speech-bubble node-speech-bubble" transform="translate(236.95336288826937,400.16035439311594) "><path class="speech-bubble-outline" transform="scale(1,1) " d="M 0 0 L 20 -10 L 20 -25 A 10 10 0 0 1 30 -35 L 284.1748046875 -35 A 10 10 0 0 1 294.1748046875 -25 L 294.1748046875 25 A 10 10 0 0 1 284.1748046875 35 L 30 35 A 10 10 0 0 1 20 25 L 20 10 Z" fill="rgb(255, 255, 255)" stroke="rgb(0, 0, 0)" stroke-width="3px"/><text class="speech-bubble-content property-key" x="169.7216796875" y="0" alignment-baseline="central" text-anchor="end" font-size="50px" font-family="&quot;Gill Sans&quot;, &quot;Gill Sans MT&quot;, Calibri, sans-serif" xml:space="preserve">name: </text><text class="speech-bubble-content property-value" x="169.7216796875" y="0" alignment-baseline="central" font-size="50px" font-family="&quot;Gill Sans&quot;, &quot;Gill Sans MT&quot;, Calibri, sans-serif">string</text></g></g><g class="layer overlay"><circle class="node overlay" r="102.93760596440549" stroke="none" fill="rgba(255, 255, 255, 0)" cx="-513.1527311905576" cy="400.16035439311594"/><circle class="node ring" r="107.93760596440549" fill="none" stroke="rgba(255, 255, 255, 0)" stroke-width="10px" cx="-513.1527311905576" cy="400.16035439311594"/><path class="relationship overlay" fill="rgba(255, 255, 255, 0)" stroke="rgba(255, 255, 255, 0)" stroke-width="10px" transform="translate(-513.1527311905576,400.16035439311594) rotate(0)" d="M 112.42656458970409,-18.922093633031903 L 113.4767328772861,-10.991321503676712 A 1597.0612437653945 1597.0612437653945 0 0 1 516.5679663236725,-13.052806659545151 L 515.1144715355888,-1.141158876764914 L 548.8168586737811,-13.147369818915204 L 518.9904576371455,-32.90555296417888 L 517.5369628490618,-20.99390518139864 A 1605.0612437653945 1605.0612437653945 0 0 0 112.42656458970409,-18.922093633031903"/><circle class="node overlay" r="97.54420608895279" stroke="none" fill="rgba(255, 255, 255, 0)" cx="143.40915679931658" cy="400.16035439311594"/><circle class="node ring" r="102.54420608895279" fill="none" stroke="rgba(255, 255, 255, 0)" stroke-width="10px" cx="143.40915679931658" cy="400.16035439311594"/><path class="relationship overlay" fill="rgba(255, 255, 255, 0)" stroke="rgba(255, 255, 255, 0)" stroke-width="10px" transform="translate(-513.1527311905576,400.16035439311594) rotate(0)" d="M 112.42656458970409,18.922093633031903 L 113.4767328772861,10.991321503676712 A 1597.0612437653945 1597.0612437653945 0 0 0 516.5679663236725,13.052806659545151 L 515.1144715355888,1.141158876764914 L 548.8168586737811,13.147369818915204 L 518.9904576371455,32.90555296417888 L 517.5369628490618,20.99390518139864 A 1605.0612437653945 1605.0612437653945 0 0 1 112.42656458970409,18.922093633031903"/><circle class="node overlay" r="102.93760596440549" stroke="none" fill="rgba(255, 255, 255, 0)" cx="-513.1527311905576" cy="-211.21619079589848"/><circle class="node ring" r="107.93760596440549" fill="none" stroke="rgba(255, 255, 255, 0)" stroke-width="10px" cx="-513.1527311905576" cy="-211.21619079589848"/><path class="relationship overlay" fill="rgba(255, 255, 255, 0)" stroke="rgba(255, 255, 255, 0)" stroke-width="10px" transform="translate(-513.1527311905576,400.16035439311594) rotate(-90)" d="M 113.93760596440549 4 L 465.43893922460893 4 L 465.43893922460893 16 L 497.43893922460893 0 L 465.43893922460893 -16 L 465.43893922460893 -4 L 113.93760596440549 -4 Z"/></g></svg>